<?xml version="1.0" encoding="utf-8"?>
<!-- Generator: Adobe Illustrator 28.2.0, SVG Export Plug-In . SVG Version: 6.00 Build 0)  -->
<svg version="1.1" xmlns="http://www.w3.org/2000/svg" xmlns:xlink="http://www.w3.org/1999/xlink" x="0px" y="0px"
	 viewBox="0 0 1014.11 480" style="enable-background:new 0 0 1014.11 480;" xml:space="preserve">
<style type="text/css">
	.st0{fill:url(#SVGID_1_);}
	.st1{fill:url(#SVGID_00000003814071223192829860000011665340693294854535_);}
	.st2{fill:url(#SVGID_00000085227702965994729230000011472122228926490519_);}
	.st3{fill:url(#SVGID_00000050631273453526290800000001400515804838182038_);}
	.st4{fill:url(#SVGID_00000067227805896107526710000003834238554291600302_);}
	.st5{fill:url(#SVGID_00000104695562778284066140000017751158840055363502_);}
	.st6{fill:url(#SVGID_00000034776166289332903290000015881998636714843062_);}
	.st7{fill:url(#SVGID_00000115485304351976015730000011743503083551783083_);}
	.st8{fill:url(#SVGID_00000129887961354710000430000016138074036714991506_);}
	.st9{fill:url(#SVGID_00000029753778489557329270000011621570186225702301_);}
	.st10{fill:url(#SVGID_00000099623544417631514310000013686199159247623564_);}
	.st11{fill:url(#SVGID_00000072264990099712003180000016357282033435494532_);}
	.st12{fill:url(#SVGID_00000032612912653094885170000001804577639097505424_);}
	.st13{fill:url(#SVGID_00000083785034088397205940000008248208404314054332_);}
	.st14{fill:url(#SVGID_00000137131206042667389490000008619877313509516420_);}
	.st15{fill:url(#SVGID_00000118371133275949798880000007191054861131906477_);}
	.st16{fill:url(#SVGID_00000096021285197504507280000007253309319540610204_);}
	.st17{fill:url(#SVGID_00000071527851320461882830000014124152091314412722_);}
	.st18{fill:url(#SVGID_00000020392987909872054390000001935753893079886742_);}
	.st19{fill:#67A6B7;}
	.st20{fill:#FAF4DE;}
	.st21{fill:#2A3B3F;}
</style>
<g id="_x30_">
	<linearGradient id="SVGID_1_" gradientUnits="userSpaceOnUse" x1="507.0532" y1="480" x2="507.0532" y2="-9.094947e-13">
		<stop  offset="0" style="stop-color:#CCDBB4"/>
		<stop  offset="1" style="stop-color:#98D4D4"/>
	</linearGradient>
	<rect class="st0" width="1014.11" height="480"/>
	<g>
		
			<linearGradient id="SVGID_00000005251004497592201870000015368225650564677253_" gradientUnits="userSpaceOnUse" x1="164.5552" y1="151.827" x2="164.5552" y2="90.5503">
			<stop  offset="0" style="stop-color:#CCDBB4"/>
			<stop  offset="1" style="stop-color:#FFFFFF"/>
		</linearGradient>
		<circle style="fill:url(#SVGID_00000005251004497592201870000015368225650564677253_);" cx="164.56" cy="121.19" r="30.64"/>
		
			<linearGradient id="SVGID_00000039813845347126698870000011571936219096789686_" gradientUnits="userSpaceOnUse" x1="212.0428" y1="124.2525" x2="212.0428" y2="50.7242">
			<stop  offset="0" style="stop-color:#CCDBB4"/>
			<stop  offset="1" style="stop-color:#FFFFFF"/>
		</linearGradient>
		<circle style="fill:url(#SVGID_00000039813845347126698870000011571936219096789686_);" cx="212.04" cy="87.49" r="36.76"/>
		
			<linearGradient id="SVGID_00000163062524199184858280000012173173195584441483_" gradientUnits="userSpaceOnUse" x1="279.0417" y1="161.8328" x2="279.0417" y2="81.3589">
			<stop  offset="0" style="stop-color:#CCDBB4"/>
			<stop  offset="1" style="stop-color:#FFFFFF"/>
		</linearGradient>
		<circle style="fill:url(#SVGID_00000163062524199184858280000012173173195584441483_);" cx="279.04" cy="121.6" r="40.24"/>
		
			<linearGradient id="SVGID_00000152943531145159995130000006904269871009351604_" gradientUnits="userSpaceOnUse" x1="222.7662" y1="161.8328" x2="222.7662" y2="94.4285">
			<stop  offset="0" style="stop-color:#CCDBB4"/>
			<stop  offset="1" style="stop-color:#FFFFFF"/>
		</linearGradient>
		<circle style="fill:url(#SVGID_00000152943531145159995130000006904269871009351604_);" cx="222.77" cy="128.13" r="33.7"/>
		
			<linearGradient id="SVGID_00000180337601199028292360000017561675985241799341_" gradientUnits="userSpaceOnUse" x1="118.6191" y1="161.8328" x2="118.6191" y2="94.4285">
			<stop  offset="0" style="stop-color:#CCDBB4"/>
			<stop  offset="1" style="stop-color:#FFFFFF"/>
		</linearGradient>
		<circle style="fill:url(#SVGID_00000180337601199028292360000017561675985241799341_);" cx="118.62" cy="128.13" r="33.7"/>
		
			<linearGradient id="SVGID_00000036959859502099359930000016162142400701885881_" gradientUnits="userSpaceOnUse" x1="326.9595" y1="161.8328" x2="326.9595" y2="94.4285">
			<stop  offset="0" style="stop-color:#CCDBB4"/>
			<stop  offset="1" style="stop-color:#FFFFFF"/>
		</linearGradient>
		<circle style="fill:url(#SVGID_00000036959859502099359930000016162142400701885881_);" cx="326.96" cy="128.13" r="33.7"/>
	</g>
	<g>
		
			<linearGradient id="SVGID_00000054947785306608914290000014864829914331774357_" gradientUnits="userSpaceOnUse" x1="807.3015" y1="197.3754" x2="807.3015" y2="136.0988">
			<stop  offset="0" style="stop-color:#CCDBB4"/>
			<stop  offset="1" style="stop-color:#FFFFFF"/>
		</linearGradient>
		<circle style="fill:url(#SVGID_00000054947785306608914290000014864829914331774357_);" cx="807.3" cy="166.74" r="30.64"/>
		
			<linearGradient id="SVGID_00000048461302267876810420000008682260129102513047_" gradientUnits="userSpaceOnUse" x1="854.7891" y1="169.8009" x2="854.7891" y2="96.2727">
			<stop  offset="0" style="stop-color:#CCDBB4"/>
			<stop  offset="1" style="stop-color:#FFFFFF"/>
		</linearGradient>
		<circle style="fill:url(#SVGID_00000048461302267876810420000008682260129102513047_);" cx="854.79" cy="133.04" r="36.76"/>
		
			<linearGradient id="SVGID_00000113314430724452843160000004222947015824681112_" gradientUnits="userSpaceOnUse" x1="921.788" y1="207.3812" x2="921.788" y2="126.9073">
			<stop  offset="0" style="stop-color:#CCDBB4"/>
			<stop  offset="1" style="stop-color:#FFFFFF"/>
		</linearGradient>
		<circle style="fill:url(#SVGID_00000113314430724452843160000004222947015824681112_);" cx="921.79" cy="167.14" r="40.24"/>
		
			<linearGradient id="SVGID_00000152244009940206452920000008850918571837402770_" gradientUnits="userSpaceOnUse" x1="865.5125" y1="207.3812" x2="865.5125" y2="139.977">
			<stop  offset="0" style="stop-color:#CCDBB4"/>
			<stop  offset="1" style="stop-color:#FFFFFF"/>
		</linearGradient>
		<circle style="fill:url(#SVGID_00000152244009940206452920000008850918571837402770_);" cx="865.51" cy="173.68" r="33.7"/>
		
			<linearGradient id="SVGID_00000183966997217848120030000012372558014891055778_" gradientUnits="userSpaceOnUse" x1="905.1548" y1="182.8706" x2="905.1548" y2="115.4663">
			<stop  offset="0" style="stop-color:#CCDBB4"/>
			<stop  offset="1" style="stop-color:#FFFFFF"/>
		</linearGradient>
		<circle style="fill:url(#SVGID_00000183966997217848120030000012372558014891055778_);" cx="905.15" cy="149.17" r="33.7"/>
		
			<linearGradient id="SVGID_00000111899272329317978930000017240895461345404291_" gradientUnits="userSpaceOnUse" x1="969.7057" y1="207.3812" x2="969.7057" y2="139.977">
			<stop  offset="0" style="stop-color:#CCDBB4"/>
			<stop  offset="1" style="stop-color:#FFFFFF"/>
		</linearGradient>
		<circle style="fill:url(#SVGID_00000111899272329317978930000017240895461345404291_);" cx="969.71" cy="173.68" r="33.7"/>
	</g>
	<g>
		
			<linearGradient id="SVGID_00000026165050157317091150000004928934653747385224_" gradientUnits="userSpaceOnUse" x1="587.3922" y1="125.6395" x2="587.3922" y2="78.4339">
			<stop  offset="0" style="stop-color:#CCDBB4"/>
			<stop  offset="1" style="stop-color:#FFFFFF"/>
		</linearGradient>
		<circle style="fill:url(#SVGID_00000026165050157317091150000004928934653747385224_);" cx="587.39" cy="102.04" r="23.6"/>
		
			<linearGradient id="SVGID_00000129185377433648119800000005161876363678312880_" gradientUnits="userSpaceOnUse" x1="623.9752" y1="104.397" x2="623.9752" y2="47.753">
			<stop  offset="0" style="stop-color:#CCDBB4"/>
			<stop  offset="1" style="stop-color:#FFFFFF"/>
		</linearGradient>
		<circle style="fill:url(#SVGID_00000129185377433648119800000005161876363678312880_);" cx="623.98" cy="76.07" r="28.32"/>
		
			<linearGradient id="SVGID_00000171686010248261749120000000525681432251497112_" gradientUnits="userSpaceOnUse" x1="675.5891" y1="133.3477" x2="675.5891" y2="71.353">
			<stop  offset="0" style="stop-color:#CCDBB4"/>
			<stop  offset="1" style="stop-color:#FFFFFF"/>
		</linearGradient>
		<circle style="fill:url(#SVGID_00000171686010248261749120000000525681432251497112_);" cx="675.59" cy="102.35" r="31"/>
		
			<linearGradient id="SVGID_00000083090300806077660720000012547624631274832559_" gradientUnits="userSpaceOnUse" x1="632.2361" y1="133.3477" x2="632.2361" y2="81.4215">
			<stop  offset="0" style="stop-color:#CCDBB4"/>
			<stop  offset="1" style="stop-color:#FFFFFF"/>
		</linearGradient>
		<circle style="fill:url(#SVGID_00000083090300806077660720000012547624631274832559_);" cx="632.24" cy="107.38" r="25.96"/>
		
			<linearGradient id="SVGID_00000158733269357467628090000004249142548657262724_" gradientUnits="userSpaceOnUse" x1="552.0043" y1="133.3477" x2="552.0043" y2="81.4215">
			<stop  offset="0" style="stop-color:#CCDBB4"/>
			<stop  offset="1" style="stop-color:#FFFFFF"/>
		</linearGradient>
		<circle style="fill:url(#SVGID_00000158733269357467628090000004249142548657262724_);" cx="552" cy="107.38" r="25.96"/>
		
			<linearGradient id="SVGID_00000084495439383026164830000001141005188181786804_" gradientUnits="userSpaceOnUse" x1="712.5036" y1="133.3477" x2="712.5036" y2="81.4215">
			<stop  offset="0" style="stop-color:#CCDBB4"/>
			<stop  offset="1" style="stop-color:#FFFFFF"/>
		</linearGradient>
		<circle style="fill:url(#SVGID_00000084495439383026164830000001141005188181786804_);" cx="712.5" cy="107.38" r="25.96"/>
	</g>
</g>
<g id="_x31_">
	<g>
		<polygon class="st19" points="44.11,389.15 44.11,286.51 84.62,286.51 84.62,355.45 102.32,350.85 102.32,229.23 152.02,229.23 
			152.02,389.15 174.98,389.15 174.98,261.85 222.47,286.51 222.47,389.15 256.17,389.15 256.17,326.34 301.47,324.81 
			301.47,389.15 326.66,389.15 318.98,173.68 360.36,173.68 360.36,211.45 393.38,211.45 399.51,389.15 437.81,389.15 
			437.81,306.43 488.36,304.89 488.36,389.15 		"/>
		<polygon class="st19" points="525.74,389.15 525.74,286.51 566.26,286.51 566.26,355.45 583.96,350.85 583.96,229.23 
			633.66,229.23 633.66,389.15 656.62,389.15 656.62,261.85 704.11,286.51 704.11,389.15 737.81,389.15 737.81,326.34 
			783.11,324.81 783.11,389.15 808.3,389.15 800.62,173.68 842,173.68 842,211.45 875.02,211.45 881.15,389.15 919.45,389.15 
			919.45,306.43 970,304.89 970,389.15 		"/>
		<rect x="29.09" y="381.9" class="st19" width="957.45" height="91.91"/>
	</g>
</g>
<g id="_x32_">
	<polygon class="st20" points="421.13,459 421.13,335.08 485.54,270.69 539,325.36 669.91,338.72 733.78,286.48 813.33,347.23 
		818.02,471.15 	"/>
</g>
<g id="_x33_">
	<g>
		<polygon class="st21" points="270.36,239.19 313.26,161.38 354.32,241.85 		"/>
		<polygon class="st21" points="312.34,207.69 301,231.39 285.68,253.24 270.36,262.43 245.85,262.43 290.28,270.69 362.28,270.69 
			373.77,270.69 346.96,253.24 330.11,249.36 		"/>
		<polygon class="st21" points="312.34,232.2 301,255.9 285.68,277.75 270.36,286.94 245.85,286.94 290.28,295.2 362.28,295.2 
			373.77,295.2 346.96,277.75 330.11,273.87 		"/>
		<polygon class="st21" points="315.12,263.97 291.34,313.66 259.21,359.48 227.09,378.76 175.69,378.76 268.85,396.07 
			419.83,396.07 443.92,396.07 387.71,359.48 352.37,351.35 		"/>
		<rect x="265.3" y="287.4" class="st21" width="89.02" height="41.1"/>
		<rect x="263.7" y="363.87" class="st21" width="97.28" height="130.21"/>
	</g>
</g>
</svg>
