<?xml version="1.0" encoding="utf-8"?>
<!-- Generator: Adobe Illustrator 28.2.0, SVG Export Plug-In . SVG Version: 6.00 Build 0)  -->
<svg version="1.1" xmlns="http://www.w3.org/2000/svg" xmlns:xlink="http://www.w3.org/1999/xlink" x="0px" y="0px"
	 viewBox="0 0 1014.11 480" style="enable-background:new 0 0 1014.11 480;" xml:space="preserve">
<style type="text/css">
	.st0{fill:url(#SVGID_1_);}
	.st1{fill:url(#SVGID_00000016763464967080610090000002048957395659842209_);}
	.st2{fill:url(#SVGID_00000038413537668339263890000007016057469199069836_);}
	.st3{fill:url(#SVGID_00000178924346269075427760000003155083485806689968_);}
	.st4{fill:url(#SVGID_00000037657452335383053000000001545578515184203922_);}
	.st5{fill:url(#SVGID_00000147205722268750322430000011220881788235089834_);}
	.st6{fill:url(#SVGID_00000158731917060240831150000007341427715527461807_);}
	.st7{fill:url(#SVGID_00000004509375860596098230000000770789449199543705_);}
	.st8{fill:url(#SVGID_00000025402635285222427740000009849789933285670580_);}
	.st9{fill:url(#SVGID_00000146491046618903812160000002018971412868737941_);}
	.st10{fill:url(#SVGID_00000142866405968864134850000001409554175874000296_);}
	.st11{fill:url(#SVGID_00000148652239578161526900000013534971861542077058_);}
	.st12{fill:url(#SVGID_00000092449890650861062240000013436480815857179014_);}
	.st13{fill:url(#SVGID_00000093896164789909112580000005760927808225750406_);}
	.st14{fill:url(#SVGID_00000125575963752293624100000003329581498102673548_);}
	.st15{fill:url(#SVGID_00000033360960194571883010000006798401944481796260_);}
	.st16{fill:url(#SVGID_00000148659397074788583660000007601206530539177892_);}
	.st17{fill:url(#SVGID_00000062879179933740918120000015008835469955696772_);}
	.st18{fill:url(#SVGID_00000026876110989190767220000018429474358521458061_);}
	.st19{fill:#67A6B7;}
	.st20{fill:#FAF4DE;}
	.st21{fill:#2A3B3F;}
</style>
<g id="_x30_">
	<linearGradient id="SVGID_1_" gradientUnits="userSpaceOnUse" x1="737.7396" y1="639.5605" x2="276.3669" y2="-159.5605">
		<stop  offset="0" style="stop-color:#CCDBB4"/>
		<stop  offset="0.226" style="stop-color:#CCD9B1"/>
		<stop  offset="0.378" style="stop-color:#CED1A8"/>
		<stop  offset="0.5083" style="stop-color:#D0C599"/>
		<stop  offset="0.6263" style="stop-color:#D3B384"/>
		<stop  offset="0.736" style="stop-color:#D79C68"/>
		<stop  offset="0.8397" style="stop-color:#DD8046"/>
		<stop  offset="0.9367" style="stop-color:#E2601E"/>
		<stop  offset="1" style="stop-color:#E74700"/>
	</linearGradient>
	<rect class="st0" width="1014.11" height="480"/>
	<g>
		
			<linearGradient id="SVGID_00000147214597078235995560000000970662501435116435_" gradientUnits="userSpaceOnUse" x1="164.5552" y1="151.827" x2="164.5552" y2="90.5503">
			<stop  offset="0" style="stop-color:#CCDBB4"/>
			<stop  offset="1" style="stop-color:#FFFFFF"/>
		</linearGradient>
		<circle style="fill:url(#SVGID_00000147214597078235995560000000970662501435116435_);" cx="164.56" cy="121.19" r="30.64"/>
		
			<linearGradient id="SVGID_00000072985648136935127650000010317636837997224106_" gradientUnits="userSpaceOnUse" x1="212.0428" y1="124.2525" x2="212.0428" y2="50.7242">
			<stop  offset="0" style="stop-color:#CCDBB4"/>
			<stop  offset="1" style="stop-color:#FFFFFF"/>
		</linearGradient>
		<circle style="fill:url(#SVGID_00000072985648136935127650000010317636837997224106_);" cx="212.04" cy="87.49" r="36.76"/>
		
			<linearGradient id="SVGID_00000158736851656030506110000009884912021399762336_" gradientUnits="userSpaceOnUse" x1="279.0417" y1="161.8328" x2="279.0417" y2="81.3589">
			<stop  offset="0" style="stop-color:#CCDBB4"/>
			<stop  offset="1" style="stop-color:#FFFFFF"/>
		</linearGradient>
		<circle style="fill:url(#SVGID_00000158736851656030506110000009884912021399762336_);" cx="279.04" cy="121.6" r="40.24"/>
		
			<linearGradient id="SVGID_00000041985338485923291350000017617613604170159261_" gradientUnits="userSpaceOnUse" x1="222.7662" y1="161.8328" x2="222.7662" y2="94.4285">
			<stop  offset="0" style="stop-color:#CCDBB4"/>
			<stop  offset="1" style="stop-color:#FFFFFF"/>
		</linearGradient>
		<circle style="fill:url(#SVGID_00000041985338485923291350000017617613604170159261_);" cx="222.77" cy="128.13" r="33.7"/>
		
			<linearGradient id="SVGID_00000124880896088428031580000017764256021469940896_" gradientUnits="userSpaceOnUse" x1="118.6191" y1="161.8328" x2="118.6191" y2="94.4285">
			<stop  offset="0" style="stop-color:#CCDBB4"/>
			<stop  offset="1" style="stop-color:#FFFFFF"/>
		</linearGradient>
		<circle style="fill:url(#SVGID_00000124880896088428031580000017764256021469940896_);" cx="118.62" cy="128.13" r="33.7"/>
		
			<linearGradient id="SVGID_00000109743673856135200640000000358176114092416684_" gradientUnits="userSpaceOnUse" x1="326.9595" y1="161.8328" x2="326.9595" y2="94.4285">
			<stop  offset="0" style="stop-color:#CCDBB4"/>
			<stop  offset="1" style="stop-color:#FFFFFF"/>
		</linearGradient>
		<circle style="fill:url(#SVGID_00000109743673856135200640000000358176114092416684_);" cx="326.96" cy="128.13" r="33.7"/>
	</g>
	<g>
		
			<linearGradient id="SVGID_00000016037073012830042740000009866194765361734280_" gradientUnits="userSpaceOnUse" x1="807.3015" y1="197.3754" x2="807.3015" y2="136.0988">
			<stop  offset="0" style="stop-color:#CCDBB4"/>
			<stop  offset="1" style="stop-color:#FFFFFF"/>
		</linearGradient>
		<circle style="fill:url(#SVGID_00000016037073012830042740000009866194765361734280_);" cx="807.3" cy="166.74" r="30.64"/>
		
			<linearGradient id="SVGID_00000086683671900815400160000013711852342622633363_" gradientUnits="userSpaceOnUse" x1="854.7891" y1="169.8009" x2="854.7891" y2="96.2727">
			<stop  offset="0" style="stop-color:#CCDBB4"/>
			<stop  offset="1" style="stop-color:#FFFFFF"/>
		</linearGradient>
		<circle style="fill:url(#SVGID_00000086683671900815400160000013711852342622633363_);" cx="854.79" cy="133.04" r="36.76"/>
		
			<linearGradient id="SVGID_00000023264463848574503690000000126331399356514988_" gradientUnits="userSpaceOnUse" x1="921.788" y1="207.3812" x2="921.788" y2="126.9073">
			<stop  offset="0" style="stop-color:#CCDBB4"/>
			<stop  offset="1" style="stop-color:#FFFFFF"/>
		</linearGradient>
		<circle style="fill:url(#SVGID_00000023264463848574503690000000126331399356514988_);" cx="921.79" cy="167.14" r="40.24"/>
		
			<linearGradient id="SVGID_00000173874558492982280700000005367023336914376086_" gradientUnits="userSpaceOnUse" x1="865.5125" y1="207.3812" x2="865.5125" y2="139.977">
			<stop  offset="0" style="stop-color:#CCDBB4"/>
			<stop  offset="1" style="stop-color:#FFFFFF"/>
		</linearGradient>
		<circle style="fill:url(#SVGID_00000173874558492982280700000005367023336914376086_);" cx="865.51" cy="173.68" r="33.7"/>
		
			<linearGradient id="SVGID_00000066498083281716928890000018308366085985864344_" gradientUnits="userSpaceOnUse" x1="905.1548" y1="182.8706" x2="905.1548" y2="115.4663">
			<stop  offset="0" style="stop-color:#CCDBB4"/>
			<stop  offset="1" style="stop-color:#FFFFFF"/>
		</linearGradient>
		<circle style="fill:url(#SVGID_00000066498083281716928890000018308366085985864344_);" cx="905.15" cy="149.17" r="33.7"/>
		
			<linearGradient id="SVGID_00000044139791781127651570000001928230528385770640_" gradientUnits="userSpaceOnUse" x1="969.7057" y1="207.3812" x2="969.7057" y2="139.977">
			<stop  offset="0" style="stop-color:#CCDBB4"/>
			<stop  offset="1" style="stop-color:#FFFFFF"/>
		</linearGradient>
		<circle style="fill:url(#SVGID_00000044139791781127651570000001928230528385770640_);" cx="969.71" cy="173.68" r="33.7"/>
	</g>
	<g>
		
			<linearGradient id="SVGID_00000106141957208909590490000014170029159462034352_" gradientUnits="userSpaceOnUse" x1="587.3922" y1="125.6395" x2="587.3922" y2="78.4339">
			<stop  offset="0" style="stop-color:#CCDBB4"/>
			<stop  offset="1" style="stop-color:#FFFFFF"/>
		</linearGradient>
		<circle style="fill:url(#SVGID_00000106141957208909590490000014170029159462034352_);" cx="587.39" cy="102.04" r="23.6"/>
		
			<linearGradient id="SVGID_00000027602362412651892300000014852495284017743238_" gradientUnits="userSpaceOnUse" x1="623.9752" y1="104.397" x2="623.9752" y2="47.753">
			<stop  offset="0" style="stop-color:#CCDBB4"/>
			<stop  offset="1" style="stop-color:#FFFFFF"/>
		</linearGradient>
		<circle style="fill:url(#SVGID_00000027602362412651892300000014852495284017743238_);" cx="623.98" cy="76.07" r="28.32"/>
		
			<linearGradient id="SVGID_00000144332773760120417100000012317141872021958039_" gradientUnits="userSpaceOnUse" x1="675.5891" y1="133.3477" x2="675.5891" y2="71.353">
			<stop  offset="0" style="stop-color:#CCDBB4"/>
			<stop  offset="1" style="stop-color:#FFFFFF"/>
		</linearGradient>
		<circle style="fill:url(#SVGID_00000144332773760120417100000012317141872021958039_);" cx="675.59" cy="102.35" r="31"/>
		
			<linearGradient id="SVGID_00000106105818874655748510000017701662514005555116_" gradientUnits="userSpaceOnUse" x1="632.2361" y1="133.3477" x2="632.2361" y2="81.4215">
			<stop  offset="0" style="stop-color:#CCDBB4"/>
			<stop  offset="1" style="stop-color:#FFFFFF"/>
		</linearGradient>
		<circle style="fill:url(#SVGID_00000106105818874655748510000017701662514005555116_);" cx="632.24" cy="107.38" r="25.96"/>
		
			<linearGradient id="SVGID_00000075140163967597749420000009946477246389422482_" gradientUnits="userSpaceOnUse" x1="552.0043" y1="133.3477" x2="552.0043" y2="81.4215">
			<stop  offset="0" style="stop-color:#CCDBB4"/>
			<stop  offset="1" style="stop-color:#FFFFFF"/>
		</linearGradient>
		<circle style="fill:url(#SVGID_00000075140163967597749420000009946477246389422482_);" cx="552" cy="107.38" r="25.96"/>
		
			<linearGradient id="SVGID_00000065794059143254658260000000872040980335635877_" gradientUnits="userSpaceOnUse" x1="712.5036" y1="133.3477" x2="712.5036" y2="81.4215">
			<stop  offset="0" style="stop-color:#CCDBB4"/>
			<stop  offset="1" style="stop-color:#FFFFFF"/>
		</linearGradient>
		<circle style="fill:url(#SVGID_00000065794059143254658260000000872040980335635877_);" cx="712.5" cy="107.38" r="25.96"/>
	</g>
</g>
<g id="_x31_">
	<g>
		<polygon class="st19" points="44.11,389.15 44.11,286.51 84.62,286.51 84.62,355.45 102.32,350.85 102.32,229.23 152.02,229.23 
			152.02,389.15 174.98,389.15 174.98,261.85 222.47,286.51 222.47,389.15 256.17,389.15 256.17,326.34 301.47,324.81 
			301.47,389.15 326.66,389.15 318.98,173.68 360.36,173.68 360.36,211.45 393.38,211.45 399.51,389.15 437.81,389.15 
			437.81,306.43 488.36,304.89 488.36,389.15 		"/>
		<polygon class="st19" points="525.74,389.15 525.74,286.51 566.26,286.51 566.26,355.45 583.96,350.85 583.96,229.23 
			633.66,229.23 633.66,389.15 656.62,389.15 656.62,261.85 704.11,286.51 704.11,389.15 737.81,389.15 737.81,326.34 
			783.11,324.81 783.11,389.15 808.3,389.15 800.62,173.68 842,173.68 842,211.45 875.02,211.45 881.15,389.15 919.45,389.15 
			919.45,306.43 970,304.89 970,389.15 		"/>
		<rect x="29.09" y="381.9" class="st19" width="957.45" height="91.91"/>
	</g>
</g>
<g id="_x32_">
	<polygon class="st20" points="421.13,459 421.13,335.08 485.54,270.69 539,325.36 669.91,338.72 733.78,286.48 813.33,347.23 
		818.02,471.15 	"/>
</g>
<g id="_x33_">
	<g>
		<polygon class="st21" points="270.36,239.19 313.26,161.38 354.32,241.85 		"/>
		<polygon class="st21" points="312.34,207.69 301,231.39 285.68,253.24 270.36,262.43 245.85,262.43 290.28,270.69 362.28,270.69 
			373.77,270.69 346.96,253.24 330.11,249.36 		"/>
		<polygon class="st21" points="312.34,232.2 301,255.9 285.68,277.75 270.36,286.94 245.85,286.94 290.28,295.2 362.28,295.2 
			373.77,295.2 346.96,277.75 330.11,273.87 		"/>
		<polygon class="st21" points="315.12,263.97 291.34,313.66 259.21,359.48 227.09,378.76 175.69,378.76 268.85,396.07 
			419.83,396.07 443.92,396.07 387.71,359.48 352.37,351.35 		"/>
		<rect x="265.3" y="287.4" class="st21" width="89.02" height="41.1"/>
		<rect x="263.7" y="363.87" class="st21" width="97.28" height="130.21"/>
	</g>
</g>
</svg>
